<svg width="21" height="21" viewBox="0 0 21 21" fill="none" xmlns="http://www.w3.org/2000/svg">
<path d="M13.7813 9.1875V5.25C13.7813 4.37976 13.4356 3.54516 12.8203 2.92981C12.2049 2.31445 11.3703 1.96875 10.5001 1.96875C9.62984 1.96875 8.79524 2.31445 8.17988 2.92981C7.56453 3.54516 7.21883 4.37976 7.21883 5.25V9.1875M17.1553 7.44362L18.2605 17.9436C18.3217 18.5255 17.8667 19.0312 17.2813 19.0312H3.71883C3.58076 19.0314 3.44421 19.0025 3.31803 18.9464C3.19186 18.8904 3.0789 18.8084 2.98647 18.7058C2.89405 18.6032 2.82424 18.4824 2.78158 18.3511C2.73891 18.2197 2.72435 18.0809 2.73883 17.9436L3.84483 7.44362C3.87034 7.20174 3.9845 6.97786 4.1653 6.81516C4.34609 6.65246 4.58073 6.56246 4.82395 6.5625H16.1762C16.6802 6.5625 17.1028 6.94312 17.1553 7.44362ZM7.54695 9.1875C7.54695 9.27452 7.51238 9.35798 7.45085 9.41952C7.38931 9.48106 7.30585 9.51562 7.21883 9.51562C7.1318 9.51562 7.04834 9.48106 6.98681 9.41952C6.92527 9.35798 6.8907 9.27452 6.8907 9.1875C6.8907 9.10048 6.92527 9.01702 6.98681 8.95548C7.04834 8.89394 7.1318 8.85938 7.21883 8.85938C7.30585 8.85938 7.38931 8.89394 7.45085 8.95548C7.51238 9.01702 7.54695 9.10048 7.54695 9.1875ZM14.1095 9.1875C14.1095 9.27452 14.0749 9.35798 14.0133 9.41952C13.9518 9.48106 13.8684 9.51562 13.7813 9.51562C13.6943 9.51562 13.6108 9.48106 13.5493 9.41952C13.4878 9.35798 13.4532 9.27452 13.4532 9.1875C13.4532 9.10048 13.4878 9.01702 13.5493 8.95548C13.6108 8.89394 13.6943 8.85938 13.7813 8.85938C13.8684 8.85938 13.9518 8.89394 14.0133 8.95548C14.0749 9.01702 14.1095 9.10048 14.1095 9.1875Z" stroke="white" stroke-width="1.5" stroke-linecap="round" stroke-linejoin="round"/>
</svg>
